                                                                                                                                                                                                                                                                                                                                                                                                                                                                                                                                                                                                                                                                                                                                                                                                                                                                                                                                                                                                                                                                                                                                                                                                                                                                                                                                                                                                                                                                                                                                                                                                                                                                                                                                                                                                                        [PACKET]
codec_type=video
stream_index=0
pts=0
pts_time=0.000000
dts=0
dts_time=0.000000
duration=48000
duration_time=0.040000
size=12151
pos=0
flags=K__
[/PACKET]
[PACKET]
codec_type=video
stream_index=0
pts=48000
pts_time=0.040000
dts=48000
dts_time=0.040000
duration=40040
duration_time=0.033367
size=4690
pos=12151
flags=K__
[/PACKET]
[PACKET]
codec_type=video
stream_index=0
pts=88040
pts_time=0.073367
dts=88040
dts_time=0.073367
duration=40040
duration_time=0.033367
size=1866
pos=16841
flags=K__
[/PACKET]
[PACKET]
codec_type=video
stream_index=0
pts=128080
pts_time=0.106733
dts=128080
dts_time=0.106733
duration=40040
duration_time=0.033367
size=1391
pos=18707
flags=K__
[/PACKET]
[PACKET]
codec_type=video
stream_index=0
pts=168120
pts_time=0.140100
dts=168120
dts_time=0.140100
duration=40040
duration_time=0.033367
size=1445
pos=20098
flags=K__
[/PACKET]
[PACKET]
codec_type=video
stream_index=0
pts=208160
pts_time=0.173467
dts=208160
dts_time=0.173467
duration=40040
duration_time=0.033367
size=1394
pos=21543
flags=K__
[/PACKET]
[PACKET]
codec_type=video
stream_index=0
pts=248200
pts_time=0.206833
dts=248200
dts_time=0.206833
duration=40040
duration_time=0.033367
size=1237
pos=22937
flags=K__
[/PACKET]
[PACKET]
codec_type=video
stream_index=0
pts=288240
pts_time=0.240200
dts=288240
dts_time=0.240200
duration=40040
duration_time=0.033367
size=1375
pos=24174
flags=K__
[/PACKET]
[PACKET]
codec_type=video
stream_index=0
pts=328280
pts_time=0.273567
dts=328280
dts_time=0.273567
duration=40040
duration_time=0.033367
size=1365
pos=25549
flags=K__
[/PACKET]
[PACKET]
codec_type=video
stream_index=0
pts=368320
pts_time=0.306933
dts=368320
dts_time=0.306933
duration=40040
duration_time=0.033367
size=1491
pos=26914
flags=K__
[/PACKET]
[PACKET]
codec_type=video
stream_index=0
pts=408360
pts_time=0.340300
dts=408360
dts_time=0.340300
duration=40040
duration_time=0.033367
size=1309
pos=28405
flags=K__
[/PACKET]
[PACKET]
codec_type=video
stream_index=0
pts=448400
pts_time=0.373667
dts=448400
dts_time=0.373667
duration=40040
duration_time=0.033367
size=1434
pos=29714
flags=K__
[/PACKET]
[PACKET]
codec_type=video
stream_index=0
pts=488440
pts_time=0.407033
dts=488440
dts_time=0.407033
duration=40040
duration_time=0.033367
size=14823
pos=31148
flags=K__
[/PACKET]
[PACKET]
codec_type=video
stream_index=0
pts=528480
pts_time=0.440400
dts=528480
dts_time=0.440400
duration=40040
duration_time=0.033367
size=3638
pos=45971
flags=K__
[/PACKET]
[PACKET]
codec_type=video
stream_index=0
pts=568520
pts_time=0.473767
dts=568520
dts_time=0.473767
duration=40040
duration_time=0.033367
size=1264
pos=49609
flags=K__
[/PACKET]
[PACKET]
codec_type=video
stream_index=0
pts=608560
pts_time=0.507133
dts=608560
dts_time=0.507133
duration=40040
duration_time=0.033367
size=2045
pos=50873
flags=K__
[/PACKET]
[PACKET]
codec_type=video
stream_index=0
pts=648600
pts_time=0.540500
dts=648600
dts_time=0.540500
duration=40040
duration_time=0.033367
size=2686
pos=52918
flags=K__
[/PACKET]
[PACKET]
codec_type=video
stream_index=0
pts=688640
pts_time=0.573867
dts=688640
dts_time=0.573867
duration=40040
duration_time=0.033367
size=1824
pos=55604
flags=K__
[/PACKET]
[PACKET]
codec_type=video
stream_index=0
pts=728680
pts_time=0.607233
dts=728680
dts_time=0.607233
duration=40040
duration_time=0.033367
size=2480
pos=57428
flags=K__
[/PACKET]
[PACKET]
codec_type=video
stream_index=0
pts=768720
pts_time=0.640600
dts=768720
dts_time=0.640600
duration=40040
duration_time=0.033367
size=2306
pos=59908
flags=K__
[/PACKET]
[PACKET]
codec_type=video
stream_index=0
pts=808760
pts_time=0.673967
dts=808760
dts_time=0.673967
duration=40040
duration_time=0.033367
size=1333
pos=62214
flags=K__
[/PACKET]
[PACKET]
codec_type=video
stream_index=0
pts=848800
pts_time=0.707333
dts=848800
dts_time=0.707333
duration=40040
duration_time=0.033367
size=1393
pos=63547
flags=K__
[/PACKET]
[PACKET]
codec_type=video
stream_index=0
pts=888840
pts_time=0.740700
dts=888840
dts_time=0.740700
duration=40040
duration_time=0.033367
size=1125
pos=64940
flags=K__
[/PACKET]
[PACKET]
codec_type=video
stream_index=0
pts=928880
pts_time=0.774067
dts=928880
dts_time=0.774067
duration=40040
duration_time=0.033367
size=1890
pos=66065
flags=K__
[/PACKET]
[PACKET]
codec_type=video
stream_index=0
pts=968920
pts_time=0.807433
dts=968920
dts_time=0.807433
duration=40040
duration_time=0.033367
size=14757
pos=67955
flags=K__
[/PACKET]
[PACKET]
codec_type=video
stream_index=0
pts=1008960
pts_time=0.840800
dts=1008960
dts_time=0.840800
duration=40040
duration_time=0.033367
size=671
pos=82712
flags=K__
[/PACKET]
[PACKET]
codec_type=video
stream_index=0
pts=1049000
pts_time=0.874167
dts=1049000
dts_time=0.874167
duration=40040
duration_time=0.033367
size=1022
pos=83383
flags=K__
[/PACKET]
[PACKET]
codec_type=video
stream_index=0
pts=1089040
pts_time=0.907533
dts=1089040
dts_time=0.907533
duration=40040
duration_time=0.033367
size=1429
pos=84405
flags=K__
[/PACKET]
[PACKET]
codec_type=video
stream_index=0
pts=1129080
pts_time=0.940900
dts=1129080
dts_time=0.940900
duration=40040
duration_time=0.033367
size=1074
pos=85834
flags=K__
[/PACKET]
[PACKET]
codec_type=video
stream_index=0
pts=1169120
pts_time=0.974267
dts=1169120
dts_time=0.974267
duration=40040
duration_time=0.033367
size=1346
pos=86908
flags=K__
[/PACKET]
[PACKET]
codec_type=video
stream_index=0
pts=1209160
pts_time=1.007633
dts=1209160
dts_time=1.007633
duration=40040
duration_time=0.033367
size=1477
pos=88254
flags=K__
[/PACKET]
[PACKET]
codec_type=video
stream_index=0
pts=1249200
pts_time=1.041000
dts=1249200
dts_time=1.041000
duration=40040
duration_time=0.033367
size=1467
pos=89731
flags=K__
[/PACKET]
[PACKET]
codec_type=video
stream_index=0
pts=1289240
pts_time=1.074367
dts=1289240
dts_time=1.074367
duration=40040
duration_time=0.033367
size=1248
pos=91198
flags=K__
[/PACKET]
[PACKET]
codec_type=video
stream_index=0
pts=1329280
pts_time=1.107733
dts=1329280
dts_time=1.107733
duration=40040
duration_time=0.033367
size=1168
pos=92446
flags=K__
[/PACKET]
[PACKET]
codec_type=video
stream_index=0
pts=1369320
pts_time=1.141100
dts=1369320
dts_time=1.141100
duration=40040
duration_time=0.033367
size=809
pos=93614
flags=K__
[/PACKET]
[PACKET]
codec_type=video
stream_index=0
pts=1409360
pts_time=1.174467
dts=1409360
dts_time=1.174467
duration=40040
duration_time=0.033367
size=1555
pos=94423
flags=K__
[/PACKET]
[PACKET]
codec_type=video
stream_index=0
pts=1449400
pts_time=1.207833
dts=1449400
dts_time=1.207833
duration=40040
duration_time=0.033367
size=12097
pos=95978
flags=K__
[/PACKET]
[PACKET]
codec_type=video
stream_index=0
pts=1489440
pts_time=1.241200
dts=1489440
dts_time=1.241200
duration=40040
duration_time=0.033367
size=811
pos=108075
flags=K__
[/PACKET]
[PACKET]
codec_type=video
stream_index=0
pts=1529480
pts_time=1.274567
dts=1529480
dts_time=1.274567
duration=40040
duration_time=0.033367
size=912
pos=108886
flags=K__
[/PACKET]
[PACKET]
codec_type=video
stream_index=0
pts=1569520
pts_time=1.307933
dts=1569520
dts_time=1.307933
duration=40040
duration_time=0.033367
size=1257
pos=109798
flags=K__
[/PACKET]
[PACKET]
codec_type=video
stream_index=0
pts=1609560
pts_time=1.341300
dts=1609560
dts_time=1.341300
duration=40040
duration_time=0.033367
size=728
pos=111055
flags=K__
[/PACKET]
[PACKET]
codec_type=video
stream_index=0
pts=1649600
pts_time=1.374667
dts=1649600
dts_time=1.374667
duration=40040
duration_time=0.033367
size=1203
pos=111783
flags=K__
[/PACKET]
[PACKET]
codec_type=video
stream_index=0
pts=1689640
pts_time=1.408033
dts=1689640
dts_time=1.408033
duration=40040
duration_time=0.033367
size=913
pos=112986
flags=K__
[/PACKET]
[PACKET]
codec_type=video
stream_index=0
pts=1729680
pts_time=1.441400
dts=1729680
dts_time=1.441400
duration=40040
duration_time=0.033367
size=891
pos=113899
flags=K__
[/PACKET]
[PACKET]
codec_type=video
stream_index=0
pts=1769720
pts_time=1.474767
dts=1769720
dts_time=1.474767
duration=40040
duration_time=0.033367
size=916
pos=114790
flags=K__
[/PACKET]
[PACKET]
codec_type=video
stream_index=0
pts=1809760
pts_time=1.508133
dts=1809760
dts_time=1.508133
duration=40040
duration_time=0.033367
size=978
pos=115706
flags=K__
[/PACKET]
[PACKET]
codec_type=video
stream_index=0
pts=1849800
pts_time=1.541500
dts=1849800
dts_time=1.541500
duration=40040
duration_time=0.033367
size=1048
pos=116684
flags=K__
[/PACKET]
[PACKET]
codec_type=video
stream_index=0
pts=1889840
pts_time=1.574867
dts=1889840
dts_time=1.574867
duration=40040
duration_time=0.033367
size=1189
pos=117732
flags=K__
[/PACKET]
[PACKET]
codec_type=video
stream_index=0
pts=1929880
pts_time=1.608233
dts=1929880
dts_time=1.608233
duration=40040
duration_time=0.033367
size=12045
pos=118921
flags=K__
[/PACKET]
[PACKET]
codec_type=video
stream_index=0
pts=1969920
pts_time=1.641600
dts=1969920
dts_time=1.641600
duration=40040
duration_time=0.033367
size=373
pos=130966
flags=K__
[/PACKET]
[PACKET]
codec_type=video
stream_index=0
pts=2009960
pts_time=1.674967
dts=2009960
dts_time=1.674967
duration=40040
duration_time=0.033367
size=246
pos=131339
flags=K__
[/PACKET]
[PACKET]
codec_type=video
stream_index=0
pts=2050000
pts_time=1.708333
dts=2050000
dts_time=1.708333
duration=40040
duration_time=0.033367
size=497
pos=131585
flags=K__
[/PACKET]
[PACKET]
codec_type=video
stream_index=0
pts=2090040
pts_time=1.741700
dts=2090040
dts_time=1.741700
duration=40040
duration_time=0.033367
size=617
pos=132082
flags=K__
[/PACKET]
[PACKET]
codec_type=video
stream_index=0
pts=2130080
pts_time=1.775067
dts=2130080
dts_time=1.775067
duration=40040
duration_time=0.033367
size=911
pos=132699
flags=K__
[/PACKET]
[PACKET]
codec_type=video
stream_index=0
pts=2170120
pts_time=1.808433
dts=2170120
dts_time=1.808433
duration=40040
duration_time=0.033367
size=871
pos=133610
flags=K__
[/PACKET]
[PACKET]
codec_type=video
stream_index=0
pts=2210160
pts_time=1.841800
dts=2210160
dts_time=1.841800
duration=40040
duration_time=0.033367
size=965
pos=134481
flags=K__
[/PACKET]
[PACKET]
codec_type=video
stream_index=0
pts=2250200
pts_time=1.875167
dts=2250200
dts_time=1.875167
duration=40040
duration_time=0.033367
size=1080
pos=135446
flags=K__
[/PACKET]
[PACKET]
codec_type=video
stream_index=0
pts=2290240
pts_time=1.908533
dts=2290240
dts_time=1.908533
duration=40040
duration_time=0.033367
size=385
pos=136526
flags=K__
[/PACKET]
[PACKET]
codec_type=video
stream_index=0
pts=2330280
pts_time=1.941900
dts=2330280
dts_time=1.941900
duration=40040
duration_time=0.033367
size=1125
pos=136911
flags=K__
[/PACKET]
[PACKET]
codec_type=video
stream_index=0
pts=2370320
pts_time=1.975267
dts=2370320
dts_time=1.975267
duration=40040
duration_time=0.033367
size=652
pos=138036
flags=K__
[/PACKET]
[PACKET]
codec_type=video
stream_index=0
pts=2410360
pts_time=2.008633
dts=2410360
dts_time=2.008633
duration=40040
duration_time=0.033367
size=11939
pos=138688
flags=K__
[/PACKET]
[PACKET]
codec_type=video
stream_index=0
pts=2450400
pts_time=2.042000
dts=2450400
dts_time=2.042000
duration=40040
duration_time=0.033367
size=684
pos=150627
flags=K__
[/PACKET]
[PACKET]
codec_type=video
stream_index=0
pts=2490440
pts_time=2.075367
dts=2490440
dts_time=2.075367
duration=40040
duration_time=0.033367
size=790
pos=151311
flags=K__
[/PACKET]
[PACKET]
codec_type=video
stream_index=0
pts=2530480
pts_time=2.108733
dts=2530480
dts_time=2.108733
duration=40040
duration_time=0.033367
size=831
pos=152101
flags=K__
[/PACKET]
[PACKET]
codec_type=video
stream_index=0
pts=2570520
pts_time=2.142100
dts=2570520
dts_time=2.142100
duration=40040
duration_time=0.033367
size=867
pos=152932
flags=K__
[/PACKET]
[PACKET]
codec_type=video
stream_index=0
pts=2610560
pts_time=2.175467
dts=2610560
dts_time=2.175467
duration=40040
duration_time=0.033367
size=811
pos=153799
flags=K__
[/PACKET]
[PACKET]
codec_type=video
stream_index=0
pts=2650600
pts_time=2.208833
dts=2650600
dts_time=2.208833
duration=40040
duration_time=0.033367
size=1051
pos=154610
flags=K__
[/PACKET]
[PACKET]
codec_type=video
stream_index=0
pts=2690640
pts_time=2.242200
dts=2690640
dts_time=2.242200
duration=40040
duration_time=0.033367
size=1082
pos=155661
flags=K__
[/PACKET]
[PACKET]
codec_type=video
stream_index=0
pts=2730680
pts_time=2.275567
dts=2730680
dts_time=2.275567
duration=40040
duration_time=0.033367
size=839
pos=156743
flags=K__
[/PACKET]
[PACKET]
codec_type=video
stream_index=0
pts=2770720
pts_time=2.308933
dts=2770720
dts_time=2.308933
duration=40040
duration_time=0.033367
size=1126
pos=157582
flags=K__
[/PACKET]
[PACKET]
codec_type=video
stream_index=0
pts=2810760
pts_time=2.342300
dts=2810760
dts_time=2.342300
duration=40040
duration_time=0.033367
size=1162
pos=158708
flags=K__
[/PACKET]
[PACKET]
codec_type=video
stream_index=0
pts=2850800
pts_time=2.375667
dts=2850800
dts_time=2.375667
duration=40040
duration_time=0.033367
size=1322
pos=159870
flags=K__
[/PACKET]
[PACKET]
codec_type=video
stream_index=0
pts=2890840
pts_time=2.409033
dts=2890840
dts_time=2.409033
duration=40040
duration_time=0.033367
size=10491
pos=161192
flags=K__
[/PACKET]
[PACKET]
codec_type=video
stream_index=0
pts=2930880
pts_time=2.442400
dts=2930880
dts_time=2.442400
duration=40040
duration_time=0.033367
size=762
pos=171683
flags=K__
[/PACKET]
[PACKET]
codec_type=video
stream_index=0
pts=2970920
pts_time=2.475767
dts=2970920
dts_time=2.475767
duration=40040
duration_time=0.033367
size=578
pos=172445
flags=K__
[/PACKET]
[PACKET]
codec_type=video
stream_index=0
pts=3010960
pts_time=2.509133
dts=3010960
dts_time=2.509133
duration=40040
duration_time=0.033367
size=621
pos=173023
flags=K__
[/PACKET]
[PACKET]
codec_type=video
stream_index=0
pts=3051000
pts_time=2.542500
dts=3051000
dts_time=2.542500
duration=40040
duration_time=0.033367
size=747
pos=173644
flags=K__
[/PACKET]
[PACKET]
codec_type=video
stream_index=0
pts=3091040
pts_time=2.575867
dts=3091040
dts_time=2.575867
duration=40040
duration_time=0.033367
size=904
pos=174391
flags=K__
[/PACKET]
[PACKET]
codec_type=video
stream_index=0
pts=3131080
pts_time=2.609233
dts=3131080
dts_time=2.609233
duration=40040
duration_time=0.033367
size=1083
pos=175295
flags=K__
[/PACKET]
[PACKET]
codec_type=video
stream_index=0
pts=3171120
pts_time=2.642600
dts=3171120
dts_time=2.642600
duration=40040
duration_time=0.033367
size=1210
pos=176378
flags=K__
[/PACKET]
[PACKET]
codec_type=video
stream_index=0
pts=3211160
pts_time=2.675967
dts=3211160
dts_time=2.675967
duration=40040
duration_time=0.033367
size=1164
pos=177588
flags=K__
[/PACKET]
[PACKET]
codec_type=video
stream_index=0
pts=3251200
pts_time=2.709333
dts=3251200
dts_time=2.709333
duration=40040
duration_time=0.033367
size=983
pos=178752
flags=K__
[/PACKET]
[PACKET]
codec_type=video
stream_index=0
pts=3291240
pts_time=2.742700
dts=3291240
dts_time=2.742700
duration=40040
duration_time=0.033367
size=774
pos=179735
flags=K__
[/PACKET]
[PACKET]
codec_type=video
stream_index=0
pts=3331280
pts_time=2.776067
dts=3331280
dts_time=2.776067
duration=40040
duration_time=0.033367
size=762
pos=180509
flags=K__
[/PACKET]
[PACKET]
codec_type=video
stream_index=0
pts=3371320
pts_time=2.809433
dts=3371320
dts_time=2.809433
duration=40040
duration_time=0.033367
size=10264
pos=181271
flags=K__
[/PACKET]
[PACKET]
codec_type=video
stream_index=0
pts=3411360
pts_time=2.842800
dts=3411360
dts_time=2.842800
duration=40040
duration_time=0.033367
size=802
pos=191535
flags=K__
[/PACKET]
[PACKET]
codec_type=video
stream_index=0
pts=3451400
pts_time=2.876167
dts=3451400
dts_time=2.876167
duration=40040
duration_time=0.033367
size=1012
pos=192337
flags=K__
[/PACKET]
[PACKET]
codec_type=video
stream_index=0
pts=3491440
pts_time=2.909533
dts=3491440
dts_time=2.909533
duration=40040
duration_time=0.033367
size=996
pos=193349
flags=K__
[/PACKET]
[PACKET]
codec_type=video
stream_index=0
pts=3531480
pts_time=2.942900
dts=3531480
dts_time=2.942900
duration=40040
duration_time=0.033367
size=591
pos=194345
flags=K__
[/PACKET]
[PACKET]
codec_type=video
stream_index=0
pts=3571520
pts_time=2.976267
dts=3571520
dts_time=2.976267
duration=40040
duration_time=0.033367
size=1143
pos=194936
flags=K__
[/PACKET]
[PACKET]
codec_type=video
stream_index=0
pts=3611560
pts_time=3.009633
dts=3611560
dts_time=3.009633
duration=40040
duration_time=0.033367
size=654
pos=196079
flags=K__
[/PACKET]
[PACKET]
codec_type=video
stream_index=0
pts=3651600
pts_time=3.043000
dts=3651600
dts_time=3.043000
duration=40040
duration_time=0.033367
size=1075
pos=196733
flags=K__
[/PACKET]
[PACKET]
codec_type=video
stream_index=0
pts=3691640
pts_time=3.076367
dts=3691640
dts_time=3.076367
duration=40040
duration_time=0.033367
size=855
pos=197808
flags=K__
[/PACKET]
[PACKET]
codec_type=video
stream_index=0
pts=3731680
pts_time=3.109733
dts=3731680
dts_time=3.109733
duration=40040
duration_time=0.033367
size=893
pos=198663
flags=K__
[/PACKET]
[PACKET]
codec_type=video
stream_index=0
pts=3771720
pts_time=3.143100
dts=3771720
dts_time=3.143100
duration=40040
duration_time=0.033367
size=592
pos=199556
flags=K__
[/PACKET]
[PACKET]
codec_type=video
stream_index=0
pts=3811760
pts_time=3.176467
dts=3811760
dts_time=3.176467
duration=40040
duration_time=0.033367
size=1244
pos=200148
flags=K__
[/PACKET]
[PACKET]
codec_type=video
stream_index=0
pts=3851800
pts_time=3.209833
dts=3851800
dts_time=3.209833
duration=40040
duration_time=0.033367
size=10329
pos=201392
flags=K__
[/PACKET]
[PACKET]
codec_type=video
stream_index=0
pts=3891840
pts_time=3.243200
dts=3891840
dts_time=3.243200
duration=40040
duration_time=0.033367
size=428
pos=211721
flags=K__
[/PACKET]
[PACKET]
codec_type=video
stream_index=0
pts=3931880
pts_time=3.276567
dts=3931880
dts_time=3.276567
duration=40040
duration_time=0.033367
size=340
pos=212149
flags=K__
[/PACKET]
[PACKET]
codec_type=video
stream_index=0
pts=3971920
pts_time=3.309933
dts=3971920
dts_time=3.309933
duration=40040
duration_time=0.033367
size=736
pos=212489
flags=K__
[/PACKET]
[PACKET]
codec_type=video
stream_index=0
pts=4011960
pts_time=3.343300
dts=4011960
dts_time=3.343300
duration=40040
duration_time=0.033367
size=606
pos=213225
flags=K__
[/PACKET]
[PACKET]
codec_type=video
stream_index=0
pts=4052000
pts_time=3.376667
dts=4052000
dts_time=3.376667
duration=40040
duration_time=0.033367
size=722
pos=213831
flags=K__
[/PACKET]
[PACKET]
codec_type=video
stream_index=0
pts=4092040
pts_time=3.410033
dts=4092040
dts_time=3.410033
duration=40040
duration_time=0.033367
size=742
pos=214553
flags=K__
[/PACKET]
[PACKET]
codec_type=video
stream_index=0
pts=4132080
pts_time=3.443400
dts=4132080
dts_time=3.443400
duration=40040
duration_time=0.033367
size=864
pos=215295
flags=K__
[/PACKET]
[PACKET]
codec_type=video
stream_index=0
pts=4172120
pts_time=3.476767
dts=4172120
dts_time=3.476767
duration=40040
duration_time=0.033367
size=792
pos=216159
flags=K__
[/PACKET]
[PACKET]
codec_type=video
stream_index=0
pts=4212160
pts_time=3.510133
dts=4212160
dts_time=3.510133
duration=40040
duration_time=0.033367
size=993
pos=216951
flags=K__
[/PACKET]
[PACKET]
codec_type=video
stream_index=0
pts=4252200
pts_time=3.543500
dts=4252200
dts_time=3.543500
duration=40040
duration_time=0.033367
size=1087
pos=217944
flags=K__
[/PACKET]
[PACKET]
codec_type=video
stream_index=0
pts=4292240
pts_time=3.576867
dts=4292240
dts_time=3.576867
duration=40040
duration_time=0.033367
size=584
pos=219031
flags=K__
[/PACKET]
[PACKET]
codec_type=video
stream_index=0
pts=4332280
pts_time=3.610233
dts=4332280
dts_time=3.610233
duration=40040
duration_time=0.033367
size=10196
pos=219615
flags=K__
[/PACKET]
[PACKET]
codec_type=video
stream_index=0
pts=4372320
pts_time=3.643600
dts=4372320
dts_time=3.643600
duration=40040
duration_time=0.033367
size=701
pos=229811
flags=K__
[/PACKET]
[PACKET]
codec_type=video
stream_index=0
pts=4412360
pts_time=3.676967
dts=4412360
dts_time=3.676967
duration=40040
duration_time=0.033367
size=718
pos=230512
flags=K__
[/PACKET]
[PACKET]
codec_type=video
stream_index=0
pts=4452400
pts_time=3.710333
dts=4452400
dts_time=3.710333
duration=40040
duration_time=0.033367
size=707
pos=231230
flags=K__
[/PACKET]
[PACKET]
codec_type=video
stream_index=0
pts=4492440
pts_time=3.743700
dts=4492440
dts_time=3.743700
duration=40040
duration_time=0.033367
size=822
pos=231937
flags=K__
[/PACKET]
[PACKET]
codec_type=video
stream_index=0
pts=4532480
pts_time=3.777067
dts=4532480
dts_time=3.777067
duration=40040
duration_time=0.033367
size=754
pos=232759
flags=K__
[/PACKET]
[PACKET]
codec_type=video
stream_index=0
pts=4572520
pts_time=3.810433
dts=4572520
dts_time=3.810433
duration=40040
duration_time=0.033367
size=778
pos=233513
flags=K__
[/PACKET]
[PACKET]
codec_type=video
stream_index=0
pts=4612560
pts_time=3.843800
dts=4612560
dts_time=3.843800
duration=40040
duration_time=0.033367
size=689
pos=234291
flags=K__
[/PACKET]
[PACKET]
codec_type=video
stream_index=0
pts=4652600
pts_time=3.877167
dts=4652600
dts_time=3.877167
duration=40040
duration_time=0.033367
size=611
pos=234980
flags=K__
[/PACKET]
[PACKET]
codec_type=video
stream_index=0
pts=4692640
pts_time=3.910533
dts=4692640
dts_time=3.910533
duration=40040
duration_time=0.033367
size=504
pos=235591
flags=K__
[/PACKET]
[PACKET]
codec_type=video
stream_index=0
pts=4732680
pts_time=3.943900
dts=4732680
dts_time=3.943900
duration=40040
duration_time=0.033367
size=871
pos=236095
flags=K__
[/PACKET]
[PACKET]
codec_type=video
stream_index=0
pts=4772720
pts_time=3.977267
dts=4772720
dts_time=3.977267
duration=40040
duration_time=0.033367
size=531
pos=236966
flags=K__
[/PACKET]
[PACKET]
codec_type=video
stream_index=0
pts=4812760
pts_time=4.010633
dts=4812760
dts_time=4.010633
duration=40040
duration_time=0.033367
size=11955
pos=237497
flags=K__
[/PACKET]
[PACKET]
codec_type=video
stream_index=0
pts=4852800
pts_time=4.044000
dts=4852800
dts_time=4.044000
duration=40040
duration_time=0.033367
size=404
pos=249452
flags=K__
[/PACKET]
[PACKET]
codec_type=video
stream_index=0
pts=4892840
pts_time=4.077367
dts=4892840
dts_time=4.077367
duration=40040
duration_time=0.033367
size=520
pos=249856
flags=K__
[/PACKET]
[PACKET]
codec_type=video
stream_index=0
pts=4932880
pts_time=4.110733
dts=4932880
dts_time=4.110733
duration=40040
duration_time=0.033367
size=544
pos=250376
flags=K__
[/PACKET]
[PACKET]
codec_type=video
stream_index=0
pts=4972920
pts_time=4.144100
dts=4972920
dts_time=4.144100
duration=40040
duration_time=0.033367
size=459
pos=250920
flags=K__
[/PACKET]
[PACKET]
codec_type=video
stream_index=0
pts=5012960
pts_time=4.177467
dts=5012960
dts_time=4.177467
duration=40040
duration_time=0.033367
size=623
pos=251379
flags=K__
[/PACKET]
[PACKET]
codec_type=video
stream_index=0
pts=5053000
pts_time=4.210833
dts=5053000
dts_time=4.210833
duration=40040
duration_time=0.033367
size=630
pos=252002
flags=K__
[/PACKET]
[PACKET]
codec_type=video
stream_index=0
pts=5093040
pts_time=4.244200
dts=5093040
dts_time=4.244200
duration=40040
duration_time=0.033367
size=618
pos=252632
flags=K__
[/PACKET]
[PACKET]
codec_type=video
stream_index=0
pts=5133080
pts_time=4.277567
dts=5133080
dts_time=4.277567
duration=40040
duration_time=0.033367
size=539
pos=253250
flags=K__
[/PACKET]
[PACKET]
codec_type=video
stream_index=0
pts=5173120
pts_time=4.310933
dts=5173120
dts_time=4.310933
duration=40040
duration_time=0.033367
size=702
pos=253789
flags=K__
[/PACKET]
[PACKET]
codec_type=video
stream_index=0
pts=5213160
pts_time=4.344300
dts=5213160
dts_time=4.344300
duration=40040
duration_time=0.033367
size=793
pos=254491
flags=K__
[/PACKET]
[PACKET]
codec_type=video
stream_index=0
pts=5253200
pts_time=4.377667
dts=5253200
dts_time=4.377667
duration=40040
duration_time=0.033367
size=779
pos=255284
flags=K__
[/PACKET]
[PACKET]
codec_type=video
stream_index=0
pts=5293240
pts_time=4.411033
dts=5293240
dts_time=4.411033
duration=40040
duration_time=0.033367
size=11973
pos=256063
flags=K__
[/PACKET]
[PACKET]
codec_type=video
stream_index=0
pts=5333280
pts_time=4.444400
dts=5333280
dts_time=4.444400
duration=40040
duration_time=0.033367
size=661
pos=268036
flags=K__
[/PACKET]
[PACKET]
codec_type=video
stream_index=0
pts=5373320
pts_time=4.477767
dts=5373320
dts_time=4.477767
duration=40040
duration_time=0.033367
size=584
pos=268697
flags=K__
[/PACKET]
[PACKET]
codec_type=video
stream_index=0
pts=5413360
pts_time=4.511133
dts=5413360
dts_time=4.511133
duration=40040
duration_time=0.033367
size=951
pos=269281
flags=K__
[/PACKET]
[PACKET]
codec_type=video
stream_index=0
pts=5453400
pts_time=4.544500
dts=5453400
dts_time=4.544500
duration=40040
duration_time=0.033367
size=1193
pos=270232
flags=K__
[/PACKET]
[PACKET]
codec_type=video
stream_index=0
pts=5493440
pts_time=4.577867
dts=5493440
dts_time=4.577867
duration=40040
duration_time=0.033367
size=826
pos=271425
flags=K__
[/PACKET]
[PACKET]
codec_type=video
stream_index=0
pts=5533480
pts_time=4.611233
dts=5533480
dts_time=4.611233
duration=40040
duration_time=0.033367
size=816
pos=272251
flags=K__
[/PACKET]
[PACKET]
codec_type=video
stream_index=0
pts=5573520
pts_time=4.644600
dts=5573520
dts_time=4.644600
duration=40040
duration_time=0.033367
size=720
pos=273067
flags=K__
[/PACKET]
[PACKET]
codec_type=video
stream_index=0
pts=5613560
pts_time=4.677967
dts=5613560
dts_time=4.677967
duration=40040
duration_time=0.033367
size=732
pos=273787
flags=K__
[/PACKET]
[PACKET]
codec_type=video
stream_index=0
pts=5653600
pts_time=4.711333
dts=5653600
dts_time=4.711333
duration=40040
duration_time=0.033367
size=670
pos=274519
flags=K__
[/PACKET]
[PACKET]
codec_type=video
stream_index=0
pts=5693640
pts_time=4.744700
dts=5693640
dts_time=4.744700
duration=40040
duration_time=0.033367
size=632
pos=275189
flags=K__
[/PACKET]
[PACKET]
codec_type=video
stream_index=0
pts=5733680
pts_time=4.778067
dts=5733680
dts_time=4.778067
duration=40040
duration_time=0.033367
size=796
pos=275821
flags=K__
[/PACKET]
[PACKET]
codec_type=video
stream_index=0
pts=5773720
pts_time=4.811433
dts=5773720
dts_time=4.811433
duration=40040
duration_time=0.033367
size=10496
pos=276617
flags=K__
[/PACKET]
[PACKET]
codec_type=video
stream_index=0
pts=5813760
pts_time=4.844800
dts=5813760
dts_time=4.844800
duration=40040
duration_time=0.033367
size=489
pos=287113
flags=K__
[/PACKET]
[PACKET]
codec_type=video
stream_index=0
pts=5853800
pts_time=4.878167
dts=5853800
dts_time=4.878167
duration=40040
duration_time=0.033367
size=526
pos=287602
flags=K__
[/PACKET]
[PACKET]
codec_type=video
stream_index=0
pts=5893840
pts_time=4.911533
dts=5893840
dts_time=4.911533
duration=40040
duration_time=0.033367
size=491
pos=288128
flags=K__
[/PACKET]
[PACKET]
codec_type=video
stream_index=0
pts=5933880
pts_time=4.944900
dts=5933880
dts_time=4.944900
duration=40040
duration_time=0.033367
size=538
pos=288619
flags=K__
[/PACKET]
[PACKET]
codec_type=video
stream_index=0
pts=5973920
pts_time=4.978267
dts=5973920
dts_time=4.978267
duration=40040
duration_time=0.033367
size=905
pos=289157
flags=K__
[/PACKET]
[PACKET]
codec_type=video
stream_index=0
pts=6013960
pts_time=5.011633
dts=6013960
dts_time=5.011633
duration=40040
duration_time=0.033367
size=585
pos=290062
flags=K__
[/PACKET]
[PACKET]
codec_type=video
stream_index=0
pts=6054000
pts_time=5.045000
dts=6054000
dts_time=5.045000
duration=40040
duration_time=0.033367
size=650
pos=290647
flags=K__
[/PACKET]
[PACKET]
codec_type=video
stream_index=0
pts=6094040
pts_time=5.078367
dts=6094040
dts_time=5.078367
duration=40040
duration_time=0.033367
size=736
pos=291297
flags=K__
[/PACKET]
[PACKET]
codec_type=video
stream_index=0
pts=6134080
pts_time=5.111733
dts=6134080
dts_time=5.111733
duration=40040
duration_time=0.033367
size=758
pos=292033
flags=K__
[/PACKET]
[PACKET]
codec_type=video
stream_index=0
pts=6174120
pts_time=5.145100
dts=6174120
dts_time=5.145100
duration=40040
duration_time=0.033367
size=884
pos=292791
flags=K__
[/PACKET]
[PACKET]
codec_type=video
stream_index=0
pts=6214160
pts_time=5.178467
dts=6214160
dts_time=5.178467
duration=40040
duration_time=0.033367
size=651
pos=293675
flags=K__
[/PACKET]
[PACKET]
codec_type=video
stream_index=0
pts=6254200
pts_time=5.211833
dts=6254200
dts_time=5.211833
duration=40040
duration_time=0.033367
size=10375
pos=294326
flags=K__
[/PACKET]
[PACKET]
codec_type=video
stream_index=0
pts=6294240
pts_time=5.245200
dts=6294240
dts_time=5.245200
duration=40040
duration_time=0.033367
size=764
pos=304701
flags=K__
[/PACKET]
[PACKET]
codec_type=video
stream_index=0
pts=6334280
pts_time=5.278567
dts=6334280
dts_time=5.278567
duration=40040
duration_time=0.033367
size=593
pos=305465
flags=K__
[/PACKET]
[PACKET]
codec_type=video
stream_index=0
pts=6374320
pts_time=5.311933
dts=6374320
dts_time=5.311933
duration=40040
duration_time=0.033367
size=675
pos=306058
flags=K__
[/PACKET]
[PACKET]
codec_type=video
stream_index=0
pts=6414360
pts_time=5.345300
dts=6414360
dts_time=5.345300
duration=40040
duration_time=0.033367
size=778
pos=306733
flags=K__
[/PACKET]
[PACKET]
codec_type=video
stream_index=0
pts=6454400
pts_time=5.378667
dts=6454400
dts_time=5.378667
duration=40040
duration_time=0.033367
size=486
pos=307511
flags=K__
[/PACKET]
[PACKET]
codec_type=video
stream_index=0
pts=6494440
pts_time=5.412033
dts=6494440
dts_time=5.412033
duration=40040
duration_time=0.033367
size=920
pos=307997
flags=K__
[/PACKET]
[PACKET]
codec_type=video
stream_index=0
pts=6534480
pts_time=5.445400
dts=6534480
dts_time=5.445400
duration=40040
duration_time=0.033367
size=571
pos=308917
flags=K__
[/PACKET]
[PACKET]
codec_type=video
stream_index=0
pts=6574520
pts_time=5.478767
dts=6574520
dts_time=5.478767
duration=40040
duration_time=0.033367
size=618
pos=309488
flags=K__
[/PACKET]
[PACKET]
codec_type=video
stream_index=0
pts=6614560
pts_time=5.512133
dts=6614560
dts_time=5.512133
duration=40040
duration_time=0.033367
size=838
pos=310106
flags=K__
[/PACKET]
[PACKET]
codec_type=video
stream_index=0
pts=6654600
pts_time=5.545500
dts=6654600
dts_time=5.545500
duration=40040
duration_time=0.033367
size=530
pos=310944
flags=K__
[/PACKET]
[PACKET]
codec_type=video
stream_index=0
pts=6694640
pts_time=5.578867
dts=6694640
dts_time=5.578867
duration=40040
duration_time=0.033367
size=520
pos=311474
flags=K__
[/PACKET]
[PACKET]
codec_type=video
stream_index=0
pts=6734680
pts_time=5.612233
dts=6734680
dts_time=5.612233
duration=40040
duration_time=0.033367
size=10296
pos=311994
flags=K__
[/PACKET]
[PACKET]
codec_type=video
stream_index=0
pts=6774720
pts_time=5.645600
dts=6774720
dts_time=5.645600
duration=40040
duration_time=0.033367
size=289
pos=322290
flags=K__
[/PACKET]
[PACKET]
codec_type=video
stream_index=0
pts=6814760
pts_time=5.678967
dts=6814760
dts_time=5.678967
duration=40040
duration_time=0.033367
size=401
pos=322579
flags=K__
[/PACKET]
[PACKET]
codec_type=video
stream_index=0
pts=6854800
pts_time=5.712333
dts=6854800
dts_time=5.712333
duration=40040
duration_time=0.033367
size=429
pos=322980
flags=K__
[/PACKET]
[PACKET]
codec_type=video
stream_index=0
pts=6894840
pts_time=5.745700
dts=6894840
dts_time=5.745700
duration=40040
duration_time=0.033367
size=460
pos=323409
flags=K__
[/PACKET]
[PACKET]
codec_type=video
stream_index=0
pts=6934880
pts_time=5.779067
dts=6934880
dts_time=5.779067
duration=40040
duration_time=0.033367
size=386
pos=323869
flags=K__
[/PACKET]
[PACKET]
codec_type=video
stream_index=0
pts=6974920
pts_time=5.812433
dts=6974920
dts_time=5.812433
duration=40040
duration_time=0.033367
size=999
pos=324255
flags=K__
[/PACKET]
[PACKET]
codec_type=video
stream_index=0
pts=7014960
pts_time=5.845800
dts=7014960
dts_time=5.845800
duration=40040
duration_time=0.033367
size=212
pos=325254
flags=K__
[/PACKET]
[PACKET]
codec_type=video
stream_index=0
pts=7055000
pts_time=5.879167
dts=7055000
dts_time=5.879167
duration=40040
duration_time=0.033367
size=482
pos=325466
flags=K__
[/PACKET]
[PACKET]
codec_type=video
stream_index=0
pts=7095040
pts_time=5.912533
dts=7095040
dts_time=5.912533
duration=40040
duration_time=0.033367
size=667
pos=325948
flags=K__
[/PACKET]
[PACKET]
codec_type=video
stream_index=0
pts=7135080
pts_time=5.945900
dts=7135080
dts_time=5.945900
duration=40040
duration_time=0.033367
size=657
pos=326615
flags=K__
[/PACKET]
[PACKET]
codec_type=video
stream_index=0
pts=7175120
pts_time=5.979267
dts=7175120
dts_time=5.979267
duration=40040
duration_time=0.033367
size=850
pos=327272
flags=K__
[/PACKET]
[PACKET]
codec_type=video
stream_index=0
pts=7215160
pts_time=6.012633
dts=7215160
dts_time=6.012633
duration=40040
duration_time=0.033367
size=10305
pos=328122
flags=K__
[/PACKET]
[PACKET]
codec_type=video
stream_index=0
pts=7255200
pts_time=6.046000
dts=7255200
dts_time=6.046000
duration=40040
duration_time=0.033367
size=418
pos=338427
flags=K__
[/PACKET]
[PACKET]
codec_type=video
stream_index=0
pts=7295240
pts_time=6.079367
dts=7295240
dts_time=6.079367
duration=40040
duration_time=0.033367
size=426
pos=338845
flags=K__
[/PACKET]
[PACKET]
codec_type=video
stream_index=0
pts=7335280
pts_time=6.112733
dts=7335280
dts_time=6.112733
duration=40040
duration_time=0.033367
size=743
pos=339271
flags=K__
[/PACKET]
[PACKET]
codec_type=video
stream_index=0
pts=7375320
pts_time=6.146100
dts=7375320
dts_time=6.146100
duration=40040
duration_time=0.033367
size=535
pos=340014
flags=K__
[/PACKET]
[PACKET]
codec_type=video
stream_index=0
pts=7415360
pts_time=6.179467
dts=7415360
dts_time=6.179467
duration=40040
duration_time=0.033367
size=326
pos=340549
flags=K__
[/PACKET]
[PACKET]
codec_type=video
stream_index=0
pts=7455400
pts_time=6.212833
dts=7455400
dts_time=6.212833
duration=40040
duration_time=0.033367
size=691
pos=340875
flags=K__
[/PACKET]
[PACKET]
codec_type=video
stream_index=0
pts=7495440
pts_time=6.246200
dts=7495440
dts_time=6.246200
duration=40040
duration_time=0.033367
size=702
pos=341566
flags=K__
[/PACKET]
[PACKET]
codec_type=video
stream_index=0
pts=7535480
pts_time=6.279567
dts=7535480
dts_time=6.279567
duration=40040
duration_time=0.033367
size=468
pos=342268
flags=K__
[/PACKET]
[PACKET]
codec_type=video
stream_index=0
pts=7575520
pts_time=6.312933
dts=7575520
dts_time=6.312933
duration=40040
duration_time=0.033367
size=639
pos=342736
flags=K__
[/PACKET]
[PACKET]
codec_type=video
stream_index=0
pts=7615560
pts_time=6.346300
dts=7615560
dts_time=6.346300
duration=40040
duration_time=0.033367
size=488
pos=343375
flags=K__
[/PACKET]
[PACKET]
codec_type=video
stream_index=0
pts=7655600
pts_time=6.379667
dts=7655600
dts_time=6.379667
duration=40040
duration_time=0.033367
size=666
pos=343863
flags=K__
[/PACKET]
[PACKET]
codec_type=video
stream_index=0
pts=7695640
pts_time=6.413033
dts=7695640
dts_time=6.413033
duration=40040
duration_time=0.033367
size=12020
pos=344529
flags=K__
[/PACKET]
[PACKET]
codec_type=video
stream_index=0
pts=7735680
pts_time=6.446400
dts=7735680
dts_time=6.446400
duration=40040
duration_time=0.033367
size=238
pos=356549
flags=K__
[/PACKET]
[PACKET]
codec_type=video
stream_index=0
pts=7775720
pts_time=6.479767
dts=7775720
dts_time=6.479767
duration=40040
duration_time=0.033367
size=247
pos=356787
flags=K__
[/PACKET]
[PACKET]
codec_type=video
stream_index=0
pts=7815760
pts_time=6.513133
dts=7815760
dts_time=6.513133
duration=40040
duration_time=0.033367
size=685
pos=357034
flags=K__
[/PACKET]
[PACKET]
codec_type=video
stream_index=0
pts=7855800
pts_time=6.546500
dts=7855800
dts_time=6.546500
duration=40040
duration_time=0.033367
size=301
pos=357719
flags=K__
[/PACKET]
[PACKET]
codec_type=video
stream_index=0
pts=7895840
pts_time=6.579867
dts=7895840
dts_time=6.579867
duration=40040
duration_time=0.033367
size=798
pos=358020
flags=K__
[/PACKET]
[PACKET]
codec_type=video
stream_index=0
pts=7935880
pts_time=6.613233
dts=7935880
dts_time=6.613233
duration=40040
duration_time=0.033367
size=471
pos=358818
flags=K__
[/PACKET]
[PACKET]
codec_type=video
stream_index=0
pts=7975920
pts_time=6.646600
dts=7975920
dts_time=6.646600
duration=40040
duration_time=0.033367
size=665
pos=359289
flags=K__
[/PACKET]
[PACKET]
codec_type=video
stream_index=0
pts=8015960
pts_time=6.679967
dts=8015960
dts_time=6.679967
duration=40040
duration_time=0.033367
size=655
pos=359954
flags=K__
[/PACKET]
[PACKET]
codec_type=video
stream_index=0
pts=8056000
pts_time=6.713333
dts=8056000
dts_time=6.713333
duration=40040
duration_time=0.033367
size=479
pos=360609
flags=K__
[/PACKET]
[PACKET]
codec_type=video
stream_index=0
pts=8096040
pts_time=6.746700
dts=8096040
dts_time=6.746700
duration=40040
duration_time=0.033367
size=586
pos=361088
flags=K__
[/PACKET]
[PACKET]
codec_type=video
stream_index=0
pts=8136080
pts_time=6.780067
dts=8136080
dts_time=6.780067
duration=40040
duration_time=0.033367
size=524
pos=361674
flags=K__
[/PACKET]
[PACKET]
codec_type=video
stream_index=0
pts=8176120
pts_time=6.813433
dts=8176120
dts_time=6.813433
duration=40040
duration_time=0.033367
size=12022
pos=362198
flags=K__
[/PACKET]
[PACKET]
codec_type=video
stream_index=0
pts=8216160
pts_time=6.846800
dts=8216160
dts_time=6.846800
duration=40040
duration_time=0.033367
size=599
pos=374220
flags=K__
[/PACKET]
[PACKET]
codec_type=video
stream_index=0
pts=8256200
pts_time=6.880167
dts=8256200
dts_time=6.880167
duration=40040
duration_time=0.033367
size=496
pos=374819
flags=K__
[/PACKET]
[PACKET]
codec_type=video
stream_index=0
pts=8296240
pts_time=6.913533
dts=8296240
dts_time=6.913533
duration=40040
duration_time=0.033367
size=638
pos=375315
flags=K__
[/PACKET]
[PACKET]
codec_type=video
stream_index=0
pts=8336280
pts_time=6.946900
dts=8336280
dts_time=6.946900
duration=40040
duration_time=0.033367
size=731
pos=375953
flags=K__
[/PACKET]
[PACKET]
codec_type=video
stream_index=0
pts=8376320
pts_time=6.980267
dts=8376320
dts_time=6.980267
duration=40040
duration_time=0.033367
size=816
pos=376684
flags=K__
[/PACKET]
[PACKET]
codec_type=video
stream_index=0
pts=8416360
pts_time=7.013633
dts=8416360
dts_time=7.013633
duration=40040
duration_time=0.033367
size=619
pos=377500
flags=K__
[/PACKET]
[PACKET]
codec_type=video
stream_index=0
pts=8456400
pts_time=7.047000
dts=8456400
dts_time=7.047000
duration=40040
duration_time=0.033367
size=698
pos=378119
flags=K__
[/PACKET]
[PACKET]
codec_type=video
stream_index=0
pts=8496440
pts_time=7.080367
dts=8496440
dts_time=7.080367
duration=40040
duration_time=0.033367
size=732
pos=378817
flags=K__
[/PACKET]
[PACKET]
codec_type=video
stream_index=0
pts=8536480
pts_time=7.113733
dts=8536480
dts_time=7.113733
duration=40040
duration_time=0.033367
size=777
pos=379549
flags=K__
[/PACKET]
[PACKET]
codec_type=video
stream_index=0
pts=8576520
pts_time=7.147100
dts=8576520
dts_time=7.147100
duration=40040
duration_time=0.033367
size=856
pos=380326
flags=K__
[/PACKET]
[PACKET]
codec_type=video
stream_index=0
pts=8616560
pts_time=7.180467
dts=8616560
dts_time=7.180467
duration=40040
duration_time=0.033367
size=719
pos=381182
flags=K__
[/PACKET]
[PACKET]
codec_type=video
stream_index=0
pts=8656600
pts_time=7.213833
dts=8656600
dts_time=7.213833
duration=40040
duration_time=0.033367
size=9274
pos=381901
flags=K__
[/PACKET]
[PACKET]
codec_type=video
stream_index=0
pts=8696640
pts_time=7.247200
dts=8696640
dts_time=7.247200
duration=40040
duration_time=0.033367
size=610
pos=391175
flags=K__
[/PACKET]
[PACKET]
codec_type=video
stream_index=0
pts=8736680
pts_time=7.280567
dts=8736680
dts_time=7.280567
duration=40040
duration_time=0.033367
size=769
pos=391785
flags=K__
[/PACKET]
[PACKET]
codec_type=video
stream_index=0
pts=8776720
pts_time=7.313933
dts=8776720
dts_time=7.313933
duration=40040
duration_time=0.033367
size=573
pos=392554
flags=K__
[/PACKET]
[PACKET]
codec_type=video
stream_index=0
pts=8816760
pts_time=7.347300
dts=8816760
dts_time=7.347300
duration=40040
duration_time=0.033367
size=925
pos=393127
flags=K__
[/PACKET]
[PACKET]
codec_type=video
stream_index=0
pts=8856800
pts_time=7.380667
dts=8856800
dts_time=7.380667
duration=40040
duration_time=0.033367
size=553
pos=394052
flags=K__
[/PACKET]
[PACKET]
codec_type=video
stream_index=0
pts=8896840
pts_time=7.414033
dts=8896840
dts_time=7.414033
duration=40040
duration_time=0.033367
size=658
pos=394605
flags=K__
[/PACKET]
[PACKET]
codec_type=video
stream_index=0
pts=8936880
pts_time=7.447400
dts=8936880
dts_time=7.447400
duration=40040
duration_time=0.033367
size=641
pos=395263
flags=K__
[/PACKET]
[PACKET]
codec_type=video
stream_index=0
pts=8976920
pts_time=7.480767
dts=8976920
dts_time=7.480767
duration=40040
duration_time=0.033367
size=901
pos=395904
flags=K__
[/PACKET]
[PACKET]
codec_type=video
stream_index=0
pts=9016960
pts_time=7.514133
dts=9016960
dts_time=7.514133
duration=40040
duration_time=0.033367
size=464
pos=396805
flags=K__
[/PACKET]
[PACKET]
codec_type=video
stream_index=0
pts=9057000
pts_time=7.547500
dts=9057000
dts_time=7.547500
duration=40040
duration_time=0.033367
size=799
pos=397269
flags=K__
[/PACKET]
[PACKET]
codec_type=video
stream_index=0
pts=9097040
pts_time=7.580867
dts=9097040
dts_time=7.580867
duration=40040
duration_time=0.033367
size=614
pos=398068
flags=K__
[/PACKET]
[PACKET]
codec_type=video
stream_index=0
pts=9137080
pts_time=7.614233
dts=9137080
dts_time=7.614233
duration=40040
duration_time=0.033367
size=9298
pos=398682
flags=K__
[/PACKET]
[PACKET]
codec_type=video
stream_index=0
pts=9177120
pts_time=7.647600
dts=9177120
dts_time=7.647600
duration=40040
duration_time=0.033367
size=374
pos=407980
flags=K__
[/PACKET]
[PACKET]
codec_type=video
stream_index=0
pts=9217160
pts_time=7.680967
dts=9217160
dts_time=7.680967
duration=40040
duration_time=0.033367
size=391
pos=408354
flags=K__
[/PACKET]
[PACKET]
codec_type=video
stream_index=0
pts=9257200
pts_time=7.714333
dts=9257200
dts_time=7.714333
duration=40040
duration_time=0.033367
size=520
pos=408745
flags=K__
[/PACKET]
[PACKET]
codec_type=video
stream_index=0
pts=9297240
pts_time=7.747700
dts=9297240
dts_time=7.747700
duration=40040
duration_time=0.033367
size=608
pos=409265
flags=K__
[/PACKET]
[PACKET]
codec_type=video
stream_index=0
pts=9337280
pts_time=7.781067
dts=9337280
dts_time=7.781067
duration=40040
duration_time=0.033367
size=665
pos=409873
flags=K__
[/PACKET]
[PACKET]
codec_type=video
stream_index=0
pts=9377320
pts_time=7.814433
dts=9377320
dts_time=7.814433
duration=40040
duration_time=0.033367
size=710
pos=410538
flags=K__
[/PACKET]
[PACKET]
codec_type=video
stream_index=0
pts=9417360
pts_time=7.847800
dts=9417360
dts_time=7.847800
duration=40040
duration_time=0.033367
size=619
pos=411248
flags=K__
[/PACKET]
[PACKET]
codec_type=video
stream_index=0
pts=9457400
pts_time=7.881167
dts=9457400
dts_time=7.881167
duration=40040
duration_time=0.033367
size=778
pos=411867
flags=K__
[/PACKET]
[PACKET]
codec_type=video
stream_index=0
pts=9497440
pts_time=7.914533
dts=9497440
dts_time=7.914533
duration=40040
duration_time=0.033367
size=703
pos=412645
flags=K__
[/PACKET]
[PACKET]
codec_type=video
stream_index=0
pts=9537480
pts_time=7.947900
dts=9537480
dts_time=7.947900
duration=40040
duration_time=0.033367
size=801
pos=413348
flags=K__
[/PACKET]
[PACKET]
codec_type=video
stream_index=0
pts=9577520
pts_time=7.981267
dts=9577520
dts_time=7.981267
duration=40040
duration_time=0.033367
size=488
pos=414149
flags=K__
[/PACKET]
[PACKET]
codec_type=video
stream_index=0
pts=9617560
pts_time=8.014633
dts=9617560
dts_time=8.014633
duration=40040
duration_time=0.033367
size=9388
pos=414637
flags=K__
[/PACKET]
[PACKET]
codec_type=video
stream_index=0
pts=9657600
pts_time=8.048000
dts=9657600
dts_time=8.048000
duration=40040
duration_time=0.033367
size=605
pos=424025
flags=K__
[/PACKET]
[PACKET]
codec_type=video
stream_index=0
pts=9697640
pts_time=8.081367
dts=9697640
dts_time=8.081367
duration=40040
duration_time=0.033367
size=664
pos=424630
flags=K__
[/PACKET]
[PACKET]
codec_type=video
stream_index=0
pts=9737680
pts_time=8.114733
dts=9737680
dts_time=8.114733
duration=40040
duration_time=0.033367
size=608
pos=425294
flags=K__
[/PACKET]
[PACKET]
codec_type=video
stream_index=0
pts=9777720
pts_time=8.148100
dts=9777720
dts_time=8.148100
duration=40040
duration_time=0.033367
size=640
pos=425902
flags=K__
[/PACKET]
[PACKET]
codec_type=video
stream_index=0
pts=9817760
pts_time=8.181467
dts=9817760
dts_time=8.181467
duration=40040
duration_time=0.033367
size=716
pos=426542
flags=K__
[/PACKET]
[PACKET]
codec_type=video
stream_index=0
pts=9857800
pts_time=8.214833
dts=9857800
dts_time=8.214833
duration=40040
duration_time=0.033367
size=634
pos=427258
flags=K__
[/PACKET]
[PACKET]
codec_type=video
stream_index=0
pts=9897840
pts_time=8.248200
dts=9897840
dts_time=8.248200
duration=40040
duration_time=0.033367
size=642
pos=427892
flags=K__
[/PACKET]
[PACKET]
codec_type=video
stream_index=0
pts=9937880
pts_time=8.281567
dts=9937880
dts_time=8.281567
duration=40040
duration_time=0.033367
size=648
pos=428534
flags=K__
[/PACKET]
[PACKET]
codec_type=video
stream_index=0
pts=9977920
pts_time=8.314933
dts=9977920
dts_time=8.314933
duration=40040
duration_time=0.033367
size=552
pos=429182
flags=K__
[/PACKET]
[PACKET]
codec_type=video
stream_index=0
pts=10017960
pts_time=8.348300
dts=10017960
dts_time=8.348300
duration=40040
duration_time=0.033367
size=873
pos=429734
flags=K__
[/PACKET]
[PACKET]
codec_type=video
stream_index=0
pts=10058000
pts_time=8.381667
dts=10058000
dts_time=8.381667
duration=40040
duration_time=0.033367
size=467
pos=430607
flags=K__
[/PACKET]
[PACKET]
codec_type=video
stream_index=0
pts=10098040
pts_time=8.415033
dts=10098040
dts_time=8.415033
duration=40040
duration_time=0.033367
size=9280
pos=431074
flags=K__
[/PACKET]
[PACKET]
codec_type=video
stream_index=0
pts=10138080
pts_time=8.448400
dts=10138080
dts_time=8.448400
duration=40040
duration_time=0.033367
size=660
pos=440354
flags=K__
[/PACKET]
[PACKET]
codec_type=video
stream_index=0
pts=10178120
pts_time=8.481767
dts=10178120
dts_time=8.481767
duration=40040
duration_time=0.033367
size=529
pos=441014
flags=K__
[/PACKET]
[PACKET]
codec_type=video
stream_index=0
pts=10218160
pts_time=8.515133
dts=10218160
dts_time=8.515133
duration=40040
duration_time=0.033367
size=492
pos=441543
flags=K__
[/PACKET]
[PACKET]
codec_type=video
stream_index=0
pts=10258200
pts_time=8.548500
dts=10258200
dts_time=8.548500
duration=40040
duration_time=0.033367
size=371
pos=442035
flags=K__
[/PACKET]
[PACKET]
codec_type=video
stream_index=0
pts=10298240
pts_time=8.581867
dts=10298240
dts_time=8.581867
duration=40040
duration_time=0.033367
size=696
pos=442406
flags=K__
[/PACKET]
[PACKET]
codec_type=video
stream_index=0
pts=10338280
pts_time=8.615233
dts=10338280
dts_time=8.615233
duration=40040
duration_time=0.033367
size=509
pos=443102
flags=K__
[/PACKET]
[PACKET]
codec_type=video
stream_index=0
pts=10378320
pts_time=8.648600
dts=10378320
dts_time=8.648600
duration=40040
duration_time=0.033367
size=834
pos=443611
flags=K__
[/PACKET]
[PACKET]
codec_type=video
stream_index=0
pts=10418360
pts_time=8.681967
dts=10418360
dts_time=8.681967
duration=40040
duration_time=0.033367
size=802
pos=444445
flags=K__
[/PACKET]
[PACKET]
codec_type=video
stream_index=0
pts=10458400
pts_time=8.715333
dts=10458400
dts_time=8.715333
duration=40040
duration_time=0.033367
size=577
pos=445247
flags=K__
[/PACKET]
[PACKET]
codec_type=video
stream_index=0
pts=10498440
pts_time=8.748700
dts=10498440
dts_time=8.748700
duration=40040
duration_time=0.033367
size=620
pos=445824
flags=K__
[/PACKET]
[PACKET]
codec_type=video
stream_index=0
pts=10538480
pts_time=8.782067
dts=10538480
dts_time=8.782067
duration=40040
duration_time=0.033367
size=811
pos=446444
flags=K__
[/PACKET]
[PACKET]
codec_type=video
stream_index=0
pts=10578520
pts_time=8.815433
dts=10578520
dts_time=8.815433
duration=40040
duration_time=0.033367
size=9110
pos=447255
flags=K__
[/PACKET]
[PACKET]
codec_type=video
stream_index=0
pts=10618560
pts_time=8.848800
dts=10618560
dts_time=8.848800
duration=40040
duration_time=0.033367
size=306
pos=456365
flags=K__
[/PACKET]
[PACKET]
codec_type=video
stream_index=0
pts=10658600
pts_time=8.882167
dts=10658600
dts_time=8.882167
duration=40040
duration_time=0.033367
size=360
pos=456671
flags=K__
[/PACKET]
[PACKET]
codec_type=video
stream_index=0
pts=10698640
pts_time=8.915533
dts=10698640
dts_time=8.915533
duration=40040
duration_time=0.033367
size=677
pos=457031
flags=K__
[/PACKET]
[PACKET]
codec_type=video
stream_index=0
pts=10738680
pts_time=8.948900
dts=10738680
dts_time=8.948900
duration=40040
duration_time=0.033367
size=390
pos=457708
flags=K__
[/PACKET]
[PACKET]
codec_type=video
stream_index=0
pts=10778720
pts_time=8.982267
dts=10778720
dts_time=8.982267
duration=40040
duration_time=0.033367
size=765
pos=458098
flags=K__
[/PACKET]
[PACKET]
codec_type=video
stream_index=0
pts=10818760
pts_time=9.015633
dts=10818760
dts_time=9.015633
duration=40040
duration_time=0.033367
size=318
pos=458863
flags=K__
[/PACKET]
[PACKET]
codec_type=video
stream_index=0
pts=10858800
pts_time=9.049000
dts=10858800
dts_time=9.049000
duration=40040
duration_time=0.033367
size=780
pos=459181
flags=K__
[/PACKET]
[PACKET]
codec_type=video
stream_index=0
pts=10898840
pts_time=9.082367
dts=10898840
dts_time=9.082367
duration=40040
duration_time=0.033367
size=387
pos=459961
flags=K__
[/PACKET]
[PACKET]
codec_type=video
stream_index=0
pts=10938880
pts_time=9.115733
dts=10938880
dts_time=9.115733
duration=40040
duration_time=0.033367
size=517
pos=460348
flags=K__
[/PACKET]
[PACKET]
codec_type=video
stream_index=0
pts=10978920
pts_time=9.149100
dts=10978920
dts_time=9.149100
duration=40040
duration_time=0.033367
size=751
pos=460865
flags=K__
[/PACKET]
[PACKET]
codec_type=video
stream_index=0
pts=11018960
pts_time=9.182467
dts=11018960
dts_time=9.182467
duration=40040
duration_time=0.033367
size=493
pos=461616
flags=K__
[/PACKET]
[PACKET]
codec_type=video
stream_index=0
pts=11059000
pts_time=9.215833
dts=11059000
dts_time=9.215833
duration=40040
duration_time=0.033367
size=9172
pos=462109
flags=K__
[/PACKET]
[PACKET]
codec_type=video
stream_index=0
pts=11099040
pts_time=9.249200
dts=11099040
dts_time=9.249200
duration=40040
duration_time=0.033367
size=690
pos=471281
flags=K__
[/PACKET]
[PACKET]
codec_type=video
stream_index=0
pts=11139080
pts_time=9.282567
dts=11139080
dts_time=9.282567
duration=40040
duration_time=0.033367
size=839
pos=471971
flags=K__
[/PACKET]
[PACKET]
codec_type=video
stream_index=0
pts=11179120
pts_time=9.315933
dts=11179120
dts_time=9.315933
duration=40040
duration_time=0.033367
size=681
pos=472810
flags=K__
[/PACKET]
[PACKET]
codec_type=video
stream_index=0
pts=11219160
pts_time=9.349300
dts=11219160
dts_time=9.349300
duration=40040
duration_time=0.033367
size=684
pos=473491
flags=K__
[/PACKET]
[PACKET]
codec_type=video
stream_index=0
pts=11259200
pts_time=9.382667
dts=11259200
dts_time=9.382667
duration=40040
duration_time=0.033367
size=667
pos=474175
flags=K__
[/PACKET]
[PACKET]
codec_type=video
stream_index=0
pts=11299240
pts_time=9.416033
dts=11299240
dts_time=9.416033
duration=40040
duration_time=0.033367
size=605
pos=474842
flags=K__
[/PACKET]
[PACKET]
codec_type=video
stream_index=0
pts=11339280
pts_time=9.449400
dts=11339280
dts_time=9.449400
duration=40040
duration_time=0.033367
size=596
pos=475447
flags=K__
[/PACKET]
[PACKET]
codec_type=video
stream_index=0
pts=11379320
pts_time=9.482767
dts=11379320
dts_time=9.482767
duration=40040
duration_time=0.033367
size=630
pos=476043
flags=K__
[/PACKET]
[PACKET]
codec_type=video
stream_index=0
pts=11419360
pts_time=9.516133
dts=11419360
dts_time=9.516133
duration=40040
duration_time=0.033367
size=614
pos=476673
flags=K__
[/PACKET]
[PACKET]
codec_type=video
stream_index=0
pts=11459400
pts_time=9.549500
dts=11459400
dts_time=9.549500
duration=40040
duration_time=0.033367
size=621
pos=477287
flags=K__
[/PACKET]
[PACKET]
codec_type=video
stream_index=0
pts=11499440
pts_time=9.582867
dts=11499440
dts_time=9.582867
duration=40040
duration_time=0.033367
size=532
pos=477908
flags=K__
[/PACKET]
[PACKET]
codec_type=video
stream_index=0
pts=11539480
pts_time=9.616233
dts=11539480
dts_time=9.616233
duration=40040
duration_time=0.033367
size=9086
pos=478440
flags=K__
[/PACKET]
[PACKET]
codec_type=video
stream_index=0
pts=11579520
pts_time=9.649600
dts=11579520
dts_time=9.649600
duration=40040
duration_time=0.033367
size=533
pos=487526
flags=K__
[/PACKET]
[PACKET]
codec_type=video
stream_index=0
pts=11619560
pts_time=9.682967
dts=11619560
dts_time=9.682967
duration=40040
duration_time=0.033367
size=561
pos=488059
flags=K__
[/PACKET]
[PACKET]
codec_type=video
stream_index=0
pts=11659600
pts_time=9.716333
dts=11659600
dts_time=9.716333
duration=40040
duration_time=0.033367
size=694
pos=488620
flags=K__
[/PACKET]
[PACKET]
codec_type=video
stream_index=0
pts=11699640
pts_time=9.749700
dts=11699640
dts_time=9.749700
duration=40040
duration_time=0.033367
size=416
pos=489314
flags=K__
[/PACKET]
[PACKET]
codec_type=video
stream_index=0
pts=11739680
pts_time=9.783067
dts=11739680
dts_time=9.783067
duration=40040
duration_time=0.033367
size=568
pos=489730
flags=K__
[/PACKET]
[PACKET]
codec_type=video
stream_index=0
pts=11779720
pts_time=9.816433
dts=11779720
dts_time=9.816433
duration=40040
duration_time=0.033367
size=596
pos=490298
flags=K__
[/PACKET]
[PACKET]
codec_type=video
stream_index=0
pts=11819760
pts_time=9.849800
dts=11819760
dts_time=9.849800
duration=40040
duration_time=0.033367
size=706
pos=490894
flags=K__
[/PACKET]
[PACKET]
codec_type=video
stream_index=0
pts=11859800
pts_time=9.883167
dts=11859800
dts_time=9.883167
duration=40040
duration_time=0.033367
size=517
pos=491600
flags=K__
[/PACKET]
[PACKET]
codec_type=video
stream_index=0
pts=11899840
pts_time=9.916533
dts=11899840
dts_time=9.916533
duration=40040
duration_time=0.033367
size=456
pos=492117
flags=K__
[/PACKET]
[PACKET]
codec_type=video
stream_index=0
pts=11939880
pts_time=9.949900
dts=11939880
dts_time=9.949900
duration=40040
duration_time=0.033367
size=697
pos=492573
flags=K__
[/PACKET]
[PACKET]
codec_type=video
stream_index=0
pts=11979920
pts_time=9.983267
dts=11979920
dts_time=9.983267
duration=40040
duration_time=0.033367
size=505
pos=493270
flags=K__
[/PACKET]
